<?xml version="1.0" standalone="no"?>
<!DOCTYPE svg PUBLIC "-//W3C//DTD SVG 20010904//EN"
 "http://www.w3.org/TR/2001/REC-SVG-20010904/DTD/svg10.dtd">
<svg version="1.0" xmlns="http://www.w3.org/2000/svg"
 width="310.000000pt" height="310.000000pt" viewBox="0 0 310.000000 310.000000"
 preserveAspectRatio="xMidYMid meet">
<metadata>
Created by potrace 1.14, written by Peter Selinger 2001-2017
</metadata>
<g transform="translate(0.000000,310.000000) scale(0.100000,-0.100000)"
fill="#000000" stroke="none">
<path d="M1188 2610 c0 -3 -2 -120 -3 -260 -1 -140 -5 -262 -9 -270 -15 -37
-116 -340 -116 -349 0 -5 27 -9 60 -8 33 1 60 0 61 -3 0 -3 2 -165 4 -360 2
-195 6 -366 9 -380 40 -225 121 -347 270 -409 143 -59 171 -62 644 -65 438 -2
543 4 652 41 161 54 257 153 304 313 9 30 16 56 16 58 0 1 0 3 1 5 14 41 19
606 7 702 -19 139 -63 246 -133 321 -41 43 -158 105 -226 120 -94 20 -136 25
-181 22 l-52 -3 -13 -65 c-7 -36 -22 -103 -33 -150 -35 -153 -35 -150 2 -151
125 -3 197 -48 229 -144 14 -44 19 -435 6 -514 -17 -106 -83 -164 -202 -178
-70 -8 -646 -8 -690 0 -16 3 -39 8 -50 11 -11 2 -25 5 -31 5 -6 1 -29 17 -51
36 -69 59 -76 103 -76 472 0 330 0 327 -47 318 -17 -3 -19 0 -15 23 7 32 10
42 18 62 11 27 87 271 87 280 0 5 -10 10 -22 12 l-22 3 -1 255 0 255 -197 0
c-109 0 -199 -2 -200 -5z m262 -512 c0 -2 -25 -79 -55 -173 -30 -93 -55 -175
-55 -182 0 -14 -34 -20 -86 -14 -12 1 -15 31 -2 31 4 0 7 3 6 8 -1 4 18 68 42
142 24 74 45 141 46 148 5 27 28 42 65 42 22 0 39 -1 39 -2z"/>
<path d="M687 2103 c-1 -1 -38 -4 -82 -6 -160 -9 -297 -48 -365 -103 -67 -54
-102 -89 -122 -122 -12 -21 -25 -39 -28 -42 -9 -7 -49 -110 -55 -140 -3 -14
-7 -36 -10 -50 -2 -14 -8 -41 -11 -60 -7 -35 -14 -1066 -7 -1085 3 -10 387
-14 397 -4 3 2 6 243 8 534 3 515 4 531 24 576 38 81 97 114 214 122 33 2 57
9 61 18 11 19 34 76 49 119 7 19 16 44 21 55 20 48 68 179 66 181 -3 3 -158
10 -160 7z"/>
<path d="M998 2102 c-58 -2 -69 -6 -80 -25 -6 -12 -10 -23 -9 -25 2 -2 -1 -15
-7 -30 -6 -15 -13 -36 -18 -47 -4 -11 -8 -24 -10 -30 -1 -5 -18 -52 -38 -103
-20 -52 -36 -99 -36 -106 0 -8 25 -12 84 -11 46 0 87 3 90 6 7 6 116 313 123
345 6 26 -9 30 -99 26z"/>
<path d="M1710 2085 c-7 -8 -10 -15 -7 -15 3 0 -15 -66 -39 -147 -25 -82 -47
-160 -50 -174 l-5 -26 90 0 91 0 14 51 c8 28 20 71 26 96 6 25 14 52 17 60 4
8 7 17 8 20 0 3 7 30 14 60 8 30 18 63 23 73 8 16 1 17 -80 17 -67 0 -93 -4
-102 -15z"/>
<path d="M1970 2074 c-6 -14 -10 -31 -10 -37 0 -7 -13 -56 -29 -109 -16 -54
-27 -98 -25 -98 2 0 -3 -19 -11 -41 -23 -65 -24 -65 74 -67 l90 -2 14 53 c14
48 40 155 42 167 0 3 4 11 8 18 5 6 6 12 3 12 -2 0 0 15 5 33 6 17 13 47 16
65 l5 32 -86 0 c-84 0 -87 -1 -96 -26z"/>
<path d="M2236 2088 c-8 -24 -48 -193 -52 -218 -3 -14 -11 -48 -19 -77 -8 -28
-15 -56 -15 -62 0 -12 158 -15 176 -3 9 6 22 55 39 140 2 13 6 31 9 40 3 9 8
31 10 47 3 17 10 46 16 65 22 78 20 80 -75 80 -60 0 -87 -4 -89 -12z"/>
</g>
</svg>
