<svg width="72" height="72" viewBox="0 0 72 72" fill="none" xmlns="http://www.w3.org/2000/svg">
<g clip-path="url(#clip0_31_332)">
<path d="M72 64.2377C72.0004 65.2573 71.8 66.267 71.4101 67.2091C71.0201 68.1513 70.4484 69.0073 69.7275 69.7284C69.0067 70.4495 68.1508 71.0215 67.2088 71.4117C66.2668 71.8018 65.2571 72.0026 64.2375 72.0024H7.7625C5.70415 72.0013 3.73054 71.1826 2.2757 69.7265C0.820856 68.2704 0.0039047 66.2961 0.00450167 64.2377V7.76269C0.00509772 5.70512 0.822576 3.73196 2.27729 2.27682C3.732 0.821684 5.70493 0.00363412 7.7625 0.00244141H64.2375C66.2958 0.00244132 68.2699 0.819965 69.7256 2.27523C71.1813 3.73049 71.9994 5.70434 72 7.76269V64.2377Z" fill="#CD071E"/>
<path d="M33.6645 55.2826V25.5905C28.1385 29.8328 24.4204 31.9523 22.5068 31.9523C21.591 31.9523 20.781 31.589 20.0768 30.8588C19.3669 30.1321 19.0148 29.2872 19.0148 28.331C19.0148 27.2217 19.3635 26.4083 20.0588 25.8807C20.7551 25.3621 21.9836 24.6882 23.7465 23.8613C26.379 22.6216 28.485 21.3177 30.0589 19.9475C31.631 18.582 33.0386 17.0378 34.2529 15.3462C35.4724 13.6475 36.2621 12.6035 36.6323 12.2131C37.0024 11.8205 37.7033 11.627 38.7236 11.627C39.8756 11.627 40.7993 12.0702 41.5001 12.9623C42.1909 13.8533 42.5396 15.0841 42.5396 16.6501V54.0113C42.5396 58.3842 41.0501 60.5701 38.0711 60.5701C36.7459 60.5701 35.6794 60.1223 34.8739 59.2313C34.065 58.3392 33.6645 57.0229 33.6645 55.2837" fill="white"/>
</g>
<defs>
<clipPath id="clip0_31_332">
<rect width="72" height="72" fill="white"/>
</clipPath>
</defs>
</svg>
