<svg width="72" height="72" viewBox="0 0 72 72" fill="none" xmlns="http://www.w3.org/2000/svg">
<g clip-path="url(#clip0_31_320)">
<path d="M71.9055 64.1531C71.9064 65.1713 71.7066 66.1797 71.3176 67.1206C70.9286 68.0615 70.3579 68.9166 69.6383 69.6369C68.9186 70.3571 68.0641 70.9285 67.1235 71.3184C66.1829 71.7082 65.1747 71.9089 64.1565 71.9089H7.74788C6.72987 71.9084 5.72193 71.7075 4.7816 71.3175C3.84127 70.9274 2.98698 70.356 2.26751 69.6358C1.54803 68.9156 0.977476 68.0607 0.588415 67.12C0.199354 66.1793 -0.000589793 65.1711 1.30679e-06 64.1531V7.75012C0.000299367 5.69515 0.816615 3.72438 2.26949 2.27108C3.72237 0.817782 5.6929 0.000894745 7.74788 0L64.1565 0C65.1742 -1.07252e-08 66.1819 0.200471 67.1222 0.589965C68.0624 0.979459 68.9167 1.55035 69.6363 2.27003C70.3558 2.98971 70.9266 3.84408 71.316 4.78437C71.7053 5.72465 71.9056 6.73242 71.9055 7.75012V64.1531Z" fill="#CD071E"/>
<path d="M38.8755 55.5527V49.5092H22.5596C20.4986 49.5092 18.9551 49.0412 17.9303 48.1097C16.9009 47.1771 16.3834 45.9092 16.3834 44.3083C16.3834 43.8954 16.461 43.4781 16.614 43.0562C16.7636 42.6321 16.9909 42.1899 17.2958 41.7242C17.6006 41.2573 17.9145 40.8073 18.2363 40.3742C18.5636 39.9411 18.9563 39.4123 19.44 38.7823L36.6638 15.7389C37.7888 14.2236 38.7158 13.1244 39.4425 12.4393C40.1704 11.7576 41.0366 11.4189 42.0615 11.4189C45.3521 11.4189 47.0003 13.3022 47.0003 17.0664V42.2237H48.3997C50.0648 42.2237 51.399 42.4509 52.4104 42.9054C53.4184 43.3599 53.9213 44.3589 53.9213 45.8957C53.9213 47.1523 53.5151 48.0681 52.6838 48.6407C51.8636 49.2178 50.6261 49.5047 48.978 49.5047H46.9991V55.5482C46.9991 57.2177 46.6279 58.4597 45.8899 59.2697C45.1575 60.0808 44.172 60.4892 42.9345 60.4892C41.724 60.4892 40.743 60.0718 39.9926 59.2371C39.2468 58.4012 38.8755 57.1716 38.8755 55.5482V55.5527ZM24.8963 42.2226H38.8744V23.3406L24.8963 42.2226Z" fill="white"/>
</g>
<defs>
<clipPath id="clip0_31_320">
<rect width="72" height="72" fill="white"/>
</clipPath>
</defs>
</svg>
