<svg width="72" height="72" viewBox="0 0 72 72" fill="none" xmlns="http://www.w3.org/2000/svg">
<g clip-path="url(#clip0_31_311)">
<path d="M7.62939e-06 7.76231C-0.000579834 6.74303 0.199631 5.73361 0.589218 4.79173C0.978798 3.84984 1.55013 2.99393 2.27055 2.27287C2.99097 1.55182 3.84639 0.979752 4.78794 0.589348C5.72949 0.198944 6.73873 -0.00214386 7.75801 -0.00244141L64.2443 -0.00244141C66.3026 -0.00125122 68.2762 0.817421 69.7311 2.27353C71.1859 3.72964 72.0029 5.70396 72.0023 7.76231L72.0023 64.2373C72.0017 66.2949 71.1842 68.268 69.7295 69.7232C68.2748 71.1783 66.3018 71.9964 64.2443 71.9976L7.75801 71.9976C5.70026 71.997 3.72698 71.1791 2.27214 69.7238C0.817291 68.2686 7.62939e-06 66.2951 7.62939e-06 64.2373L7.62939e-06 7.76231Z" fill="#CD071E"/>
<path d="M28.422 33.6487C29.8541 31.9522 31.4606 30.6742 33.2336 29.8147C35.0033 28.9564 36.9686 28.5266 39.1253 28.5266C41.1716 28.5266 43.0785 28.9237 44.8481 29.718C46.5992 30.4916 48.1672 31.6264 49.4494 33.048C50.742 34.4722 51.7399 36.135 52.4385 38.0374C53.1355 39.957 53.4882 41.9846 53.4803 44.0269C53.4803 46.2645 53.0876 48.393 52.3024 50.4056C51.5239 52.4149 50.4023 54.162 48.9431 55.6402C47.4863 57.1196 45.7526 58.2727 43.7389 59.0996C41.7274 59.9265 39.5033 60.3394 37.0665 60.3394C34.2619 60.3394 31.7599 59.8286 29.5639 58.8049C27.3796 57.7947 25.4753 56.2661 24.0165 54.3521C22.5124 52.4059 21.3649 49.9534 20.5526 46.9946C19.7494 44.0347 19.3466 40.6845 19.3466 36.945C19.3466 32.7679 19.7775 29.0846 20.6246 25.8986C21.4673 22.7126 22.7048 20.0362 24.327 17.8717C25.9493 15.7095 27.8876 14.0996 30.1545 13.0421C32.4158 11.9902 34.9808 11.4637 37.8473 11.4637C40.6766 11.4637 43.1359 12.0015 45.2273 13.0759C47.313 14.1514 48.9015 15.4924 49.9894 17.091C51.0761 18.6907 51.6195 20.2286 51.6195 21.708C51.6195 22.617 51.282 23.4371 50.6081 24.156C49.932 24.8726 49.0736 25.2315 48.0274 25.2315C47.0734 25.2315 46.2161 24.9626 45.4545 24.4327C44.6918 23.8984 44.1158 23.0996 43.7231 22.0331C43.2725 20.7645 42.4426 19.6652 41.346 18.8842C40.2526 18.0973 38.9367 17.68 37.5896 17.6929C36.3476 17.6929 35.1731 18.0079 34.0661 18.6379C32.9513 19.2701 32.0085 20.1611 31.2266 21.3142C29.6629 23.6419 28.7269 27.7526 28.422 33.6487ZM29.1713 43.6331C29.1713 45.1102 29.376 46.476 29.7743 47.7315C30.1759 48.9802 30.7418 50.0614 31.4719 50.9749C32.1779 51.8696 33.0665 52.6037 34.0785 53.1281C35.104 53.6538 36.2416 53.9232 37.3939 53.9134C39.4583 53.9134 41.2121 53.0257 42.6488 51.2527C44.0831 49.4786 44.802 47.1352 44.802 44.2192C44.802 41.328 44.0831 39.0217 42.6488 37.305C41.2121 35.5849 39.3964 34.7242 37.1959 34.7242C35.8481 34.7242 34.5589 35.0786 33.3281 35.7862C32.0996 36.4939 31.1018 37.5221 30.3289 38.871C29.556 40.2199 29.1713 41.8061 29.1713 43.6331Z" fill="white"/>
</g>
<defs>
<clipPath id="clip0_31_311">
<rect width="72" height="72" fill="white"/>
</clipPath>
</defs>
</svg>
