<svg width="72" height="72" viewBox="0 0 72 72" fill="none" xmlns="http://www.w3.org/2000/svg">
<g clip-path="url(#clip0_31_307)">
<path d="M72 64.2374C72.0006 65.2567 71.8003 66.2662 71.4107 67.2082C71.021 68.1502 70.4496 69.0061 69.7291 69.7272C69.0085 70.4483 68.153 71.0203 67.2113 71.4106C66.2696 71.801 65.2603 72.002 64.2409 72.0021H7.75463C6.73539 72.0017 5.72622 71.8005 4.78474 71.41C3.84325 71.0196 2.98789 70.4475 2.2675 69.7265C1.5471 69.0054 0.975772 68.1496 0.586136 67.2078C0.1965 66.2659 -0.00381477 65.2566 -0.00337146 64.2374V7.76235C-0.00337165 5.70449 0.813879 3.73087 2.26869 2.27542C3.7235 0.81998 5.69677 0.00187141 7.75463 0.000976562H64.2409C68.5271 0.000976562 72 3.47723 72 7.76235V64.2374Z" fill="#CD071E"/>
<path d="M25.6759 11.9766H47.3659C49.4482 11.9766 50.9569 12.3017 51.8884 12.9531C52.8199 13.6056 53.2845 14.6788 53.2845 16.1773C53.2845 17.0897 52.7377 18.2923 51.642 19.7931C50.4144 21.464 49.1648 23.1186 47.8935 24.7566C46.4974 26.5689 45.0506 28.8223 43.5645 31.5178C42.0772 34.2111 40.7137 37.4994 39.4785 41.3829C38.9542 43.0997 38.5875 44.5217 38.3726 45.6501C38.1028 47.1105 37.8631 48.5763 37.6537 50.0466C37.395 51.8488 37.1677 53.2269 36.9697 54.1832C36.5164 56.3972 35.8717 57.9317 35.0336 58.7912C34.1966 59.6507 33.084 60.0793 31.6946 60.0793C30.3739 60.0793 29.3085 59.6147 28.5075 58.6944C27.702 57.7742 27.297 56.4118 27.297 54.6051C27.297 53.2157 27.5917 51.3302 28.1801 48.9351C28.7651 46.5501 29.718 43.6903 31.0466 40.3581C32.3674 37.0247 34.0245 33.6081 36.0146 30.0981C37.998 26.5926 40.356 23.1028 43.0965 19.6299H25.6714C23.85 19.6299 22.4842 19.2981 21.5865 18.6366C20.6831 17.9728 20.2365 16.9367 20.2365 15.5248C20.2365 14.0263 20.7101 13.0622 21.6686 12.6257C22.6192 12.1937 23.9591 11.9766 25.6714 11.9766" fill="white"/>
</g>
<defs>
<clipPath id="clip0_31_307">
<rect width="72" height="72" fill="white"/>
</clipPath>
</defs>
</svg>
