<svg width="72" height="72" viewBox="0 0 72 72" fill="none" xmlns="http://www.w3.org/2000/svg">
<g clip-path="url(#clip0_31_303)">
<path d="M72 64.2377C72.0006 65.2572 71.8003 66.2668 71.4106 67.2088C71.0208 68.1508 70.4493 69.0068 69.7287 69.7279C69.008 70.449 68.1523 71.021 67.2105 71.4113C66.2687 71.8016 65.2592 72.0024 64.2397 72.0024H7.76475C6.74536 72.0021 5.73602 71.8011 4.79434 71.4107C3.85267 71.0203 2.9971 70.4483 2.27649 69.7273C1.55589 69.0062 0.984355 68.1503 0.594526 67.2084C0.204697 66.2665 0.00420615 65.2571 0.00450167 64.2377V7.76269C0.00509809 5.70473 0.822885 3.73122 2.27808 2.27602C3.73328 0.820825 5.70679 0.00303783 7.76475 0.00244141H64.2397C66.2979 0.00244141 68.2717 0.820037 69.7271 2.27537C71.1824 3.7307 72 5.70455 72 7.76269V64.2377Z" fill="#CD071E"/>
<path d="M20.7281 24.1199C20.7281 21.9464 21.3176 19.8955 22.509 17.9706C23.6936 16.0435 25.4295 14.5045 27.7268 13.3559C30.024 12.2005 32.7026 11.6245 35.7671 11.6245C38.3591 11.6245 40.6316 11.9631 42.5846 12.6348C44.5444 13.3109 46.1768 14.2379 47.4806 15.4225C48.7845 16.6116 49.7531 17.9504 50.3854 19.4399C51.0154 20.9283 51.3326 22.5111 51.3326 24.1851C51.3326 26.3181 50.7859 28.2205 49.6834 29.8945C48.5865 31.5685 46.944 32.9388 44.7716 34.003C46.6211 34.723 48.1579 35.6658 49.3751 36.8279C50.5748 37.9627 51.5144 39.344 52.1291 40.8768C52.7524 42.4068 53.0595 44.11 53.0595 45.9809C53.0595 48.7225 52.3969 51.2054 51.0728 53.4351C49.7441 55.666 47.7934 57.4131 45.2329 58.6731C42.6656 59.9343 39.6383 60.5643 36.1654 60.5643C32.5541 60.5643 29.4671 59.9343 26.8965 58.6731C24.3338 57.4131 22.3965 55.675 21.0915 53.4689C19.7854 51.2605 19.1351 48.7833 19.1351 46.0473C19.1351 40.195 21.8936 36.181 27.4174 34.0019C22.959 31.9206 20.7315 28.6255 20.7315 24.1199H20.7281ZM44.1248 45.7199C44.1248 44.0234 43.7783 42.5451 43.0841 41.2806C42.4111 40.0456 41.3885 39.0367 40.1445 38.3804C38.8823 37.7043 37.4681 37.3701 35.9021 37.3701C33.687 37.3701 31.824 38.1059 30.3233 39.5875C28.8225 41.0635 28.0733 43.1313 28.0733 45.7874C28.0733 47.4839 28.4254 48.979 29.1308 50.2705C29.8406 51.5654 30.8025 52.5678 32.0198 53.2754C33.237 53.983 34.5983 54.3351 36.1013 54.3351C37.6178 54.3351 38.988 53.9763 40.2075 53.2574C41.4248 52.5408 42.3855 51.5283 43.0841 50.2221C43.7783 48.916 44.1248 47.4175 44.1248 45.7221V45.7199ZM35.9685 17.8581C33.9199 17.8581 32.274 18.4926 31.023 19.765C29.7731 21.0374 29.1521 22.6743 29.1521 24.6768C29.1521 26.5263 29.79 28.063 31.0736 29.2949C32.3573 30.5211 34.0076 31.1354 36.0338 31.1354C37.0541 31.1354 37.9845 30.9711 38.8226 30.6471C39.6224 30.3453 40.3532 29.8854 40.9714 29.2949C41.5745 28.7147 42.048 28.0135 42.3608 27.2373C42.6893 26.443 42.8535 25.5678 42.8535 24.6104C42.8535 23.329 42.5633 22.1781 41.9828 21.151C41.4146 20.1355 40.5736 19.2993 39.555 18.7368C38.511 18.1506 37.3174 17.8581 35.9685 17.8581Z" fill="white"/>
</g>
<defs>
<clipPath id="clip0_31_303">
<rect width="72" height="72" fill="white"/>
</clipPath>
</defs>
</svg>
