<svg width="144" height="150" viewBox="0 0 144 150" fill="none" xmlns="http://www.w3.org/2000/svg">
<path d="M83.3629 37.9583H90.9425C92.9522 37.9603 94.8789 38.7411 96.2999 40.1295C97.721 41.5178 98.5202 43.4003 98.5222 45.3637V52.7691C98.5222 54.7331 99.3207 56.6167 100.742 58.0054C102.164 59.3942 104.092 60.1744 106.102 60.1744C108.112 60.1744 110.04 59.3942 111.461 58.0054C112.883 56.6167 113.681 54.7331 113.681 52.7691V45.3637C113.675 39.4734 111.278 33.8261 107.015 29.661C102.752 25.496 96.9714 23.1535 90.9425 23.1476H83.3629C81.3527 23.1476 79.4247 23.9278 78.0033 25.3166C76.5818 26.7053 75.7833 28.5889 75.7833 30.5529C75.7833 32.517 76.5818 34.4006 78.0033 35.7893C79.4247 37.1781 81.3527 37.9583 83.3629 37.9583ZM53.0443 104.607H45.4647C43.4551 104.605 41.5283 103.824 40.1073 102.436C38.6863 101.047 37.8871 99.1647 37.8851 97.2013V89.7959C37.8851 87.8319 37.0865 85.9483 35.665 84.5595C34.2436 83.1708 32.3157 82.3905 30.3054 82.3905C28.2952 82.3905 26.3673 83.1708 24.9458 84.5595C23.5244 85.9483 22.7258 87.8319 22.7258 89.7959V97.2013C22.7318 103.092 25.1294 108.739 29.3925 112.904C33.6556 117.069 39.4358 119.412 45.4647 119.417H53.0443C55.0546 119.417 56.9825 118.637 58.404 117.248C59.8254 115.86 60.624 113.976 60.624 112.012C60.624 110.048 59.8254 108.164 58.404 106.776C56.9825 105.387 55.0546 104.607 53.0443 104.607ZM136.42 97.2013C138.431 97.2013 140.359 96.4211 141.78 95.0323C143.201 93.6435 144 91.7599 144 89.7959C144 87.8319 143.201 85.9483 141.78 84.5595C140.359 83.1708 138.431 82.3905 136.42 82.3905H113.681V78.6879C113.681 76.7238 112.883 74.8402 111.461 73.4515C110.04 72.0627 108.112 71.2825 106.102 71.2825C104.092 71.2825 102.164 72.0627 100.742 73.4515C99.3207 74.8402 98.5222 76.7238 98.5222 78.6879V82.3905H75.7833C73.773 82.3905 71.8451 83.1708 70.4236 84.5595C69.0022 85.9483 68.2036 87.8319 68.2036 89.7959C68.2036 91.7599 69.0022 93.6435 70.4236 95.0323C71.8451 96.4211 73.773 97.2013 75.7833 97.2013H115.076C113.363 104.008 110.199 110.384 105.791 115.915C103.985 113.629 102.387 111.193 101.016 108.635C100.58 107.741 99.9646 106.941 99.2065 106.283C98.4483 105.625 97.5628 105.122 96.6023 104.805C95.6418 104.487 94.6258 104.361 93.6146 104.434C92.6033 104.507 91.6173 104.778 90.715 105.23C89.8126 105.682 89.0123 106.306 88.3613 107.065C87.7103 107.825 87.2219 108.704 86.9251 109.652C86.6283 110.599 86.529 111.595 86.6332 112.58C86.7374 113.566 87.0429 114.521 87.5317 115.389C89.5752 119.243 92.0131 122.886 94.8082 126.26C89.3066 130.162 83.0505 132.931 76.4199 134.398C74.4559 134.818 72.7429 135.982 71.6576 137.636C70.5723 139.289 70.2037 141.296 70.6329 143.215C71.0621 145.133 72.2539 146.807 73.9461 147.867C75.6384 148.928 77.6925 149.288 79.6565 148.869C89.1668 146.813 98.0876 142.709 105.768 136.857C113.514 142.714 122.495 146.817 132.062 148.869C134.026 149.291 136.081 148.934 137.776 147.875C139.47 146.817 140.665 145.145 141.097 143.226C141.529 141.307 141.163 139.299 140.08 137.643C138.997 135.988 137.285 134.821 135.321 134.398C128.65 132.949 122.345 130.204 116.782 126.327C123.792 117.899 128.517 107.883 130.523 97.2013H136.42ZM45.6921 69.3793C46.1922 71.2721 47.438 72.895 49.1579 73.894C50.8778 74.8929 52.9322 75.1869 54.8731 74.7119C56.814 74.2369 58.4839 73.0313 59.5186 71.3581C60.5533 69.6849 60.8689 67.6799 60.3966 65.7803L47.0792 13.7205C46.1446 10.0652 43.986 6.82009 40.9467 4.50115C37.9073 2.18222 34.1617 0.922607 30.3054 0.922607C26.4491 0.922607 22.7035 2.18222 19.6642 4.50115C16.6248 6.82009 14.4663 10.0652 13.5317 13.7205L0.214259 65.7803C-0.258091 67.6799 0.0575114 69.6849 1.09224 71.3581C2.12697 73.0313 3.79687 74.2369 5.73776 74.7119C7.67866 75.1869 9.73307 74.8929 11.453 73.894C13.1729 72.895 14.4187 71.2721 14.9188 69.3793L19.1634 52.7691H41.4475L45.6921 69.3793ZM22.9532 37.9583L28.2438 17.3196C28.4027 16.9111 28.685 16.5595 29.0532 16.3114C29.4215 16.0634 29.8582 15.9305 30.3054 15.9305C30.7527 15.9305 31.1894 16.0634 31.5576 16.3114C31.9258 16.5595 32.2081 16.9111 32.3671 17.3196L37.6501 37.9583H22.9532Z" fill="black"/>
</svg>
