<svg width="128" height="128" viewBox="0 0 128 128" fill="none" xmlns="http://www.w3.org/2000/svg">
<g clip-path="url(#clip0_108_210)">
<path d="M128 96.0001C128 99.772 126.502 103.389 123.834 106.057C121.167 108.724 117.55 110.222 113.778 110.222H14.2222C10.4503 110.222 6.83278 108.724 4.16559 106.057C1.49841 103.389 0 99.772 0 96.0001V32.0001C0 28.2281 1.49841 24.6106 4.16559 21.9434C6.83278 19.2762 10.4503 17.7778 14.2222 17.7778H113.778C117.55 17.7778 121.167 19.2762 123.834 21.9434C126.502 24.6106 128 28.2281 128 32.0001V96.0001Z" fill="#DE2910"/>
<path d="M39.5947 31.9182L42.2116 33.184L44.3058 31.1715L43.9111 34.0515L46.4711 35.424L43.6124 35.936L43.1004 38.7946L41.728 36.2346L38.848 36.6293L40.8604 34.5351L39.5947 31.9182ZM56.1813 42.3751L54.9156 44.9884L56.928 47.0862L54.0516 46.688L52.6791 49.2515L52.1671 46.3893L49.3049 45.8773L51.8685 44.5048L51.4702 41.6284L53.568 43.6408L56.1813 42.3751ZM52.7787 55.8115L53.7316 58.5564L56.6364 58.6168L54.3218 60.3697L55.1644 63.1537L52.7787 61.4933L50.3929 63.1537L51.232 60.3697L48.9173 58.6168L51.8222 58.5564L52.7787 55.8115ZM39.5947 67.4737L42.2116 68.7395L44.3058 66.7271L43.9111 69.6071L46.4711 70.9795L43.6124 71.4915L43.1004 74.3502L41.728 71.7902L38.848 72.1848L40.8604 70.0906L39.5947 67.4737ZM24.8889 38.9368L28.192 48.4337L38.24 48.64L30.2293 54.7128L33.1413 64.3342L24.8889 58.592L16.6364 64.3342L19.5484 54.7128L11.5378 48.64L21.5858 48.4337L24.8889 38.9368Z" fill="#FFDE02"/>
</g>
<defs>
<clipPath id="clip0_108_210">
<rect width="128" height="128" fill="white"/>
</clipPath>
</defs>
</svg>
