<svg width="128" height="128" viewBox="0 0 128 128" fill="none" xmlns="http://www.w3.org/2000/svg">
<path d="M115.378 30.0088L78.2222 54.3999V33.8133C78.2245 33.1404 78.0358 32.4808 77.6781 31.9109C77.3204 31.341 76.8083 30.8843 76.2014 30.5939C75.5945 30.3035 74.9176 30.1912 74.2494 30.2702C73.5812 30.3491 72.9492 30.616 72.4266 31.0399L50.0266 49.7777H35.5555V14.4355L14.2222 9.6355V49.7777H7.11108V110.222C7.11108 111.165 7.48569 112.07 8.15248 112.736C8.81928 113.403 9.72365 113.778 10.6666 113.778H117.333C118.276 113.778 119.181 113.403 119.847 112.736C120.514 112.07 120.889 111.165 120.889 110.222V32.9599C120.886 32.3197 120.709 31.6921 120.379 31.1437C120.049 30.5952 119.576 30.1461 119.012 29.8438C118.447 29.5416 117.812 29.3973 117.172 29.4264C116.532 29.4554 115.912 29.6567 115.378 30.0088ZM49.7777 103.111H21.3333V95.9999H49.7777V103.111ZM49.7777 88.8888H21.3333V81.7777H49.7777V88.8888ZM49.7777 74.6666H21.3333V67.5555H49.7777V74.6666ZM78.2222 103.111H71.1111V92.4444H78.2222V103.111ZM78.2222 81.7777H71.1111V71.1111H78.2222V81.7777ZM92.4444 103.111H85.3333V92.4444H92.4444V103.111ZM92.4444 81.7777H85.3333V71.1111H92.4444V81.7777ZM106.667 103.111H99.5555V92.4444H106.667V103.111ZM106.667 81.7777H99.5555V71.1111H106.667V81.7777Z" fill="black"/>
</svg>
