<svg width="188" height="130" viewBox="0 0 188 130" fill="none" xmlns="http://www.w3.org/2000/svg">
<g clip-path="url(#clip0_32_399)">
<path d="M15.6715 79.1304C17.8472 79.1304 19.3703 78.1884 20.2406 76.3044C21.1109 74.4203 21.1109 72.5362 20.2406 70.6522C19.3703 68.7681 17.8472 67.8261 15.6715 67.8261C13.4957 67.8261 11.9726 68.7681 11.1023 70.6522C10.232 72.5362 10.232 74.4203 11.1023 76.3044C11.9726 78.1884 13.4957 79.1304 15.6715 79.1304ZM135.857 74.0082C135.313 73.2428 134.266 71.7708 132.716 69.5924C131.165 67.4139 130.037 65.8243 129.329 64.8234C128.622 63.8225 127.589 62.38 126.229 60.4959C124.869 58.6119 123.713 57.0516 122.761 55.8152C121.809 54.5788 120.708 53.1952 119.457 51.6644C118.206 50.1336 116.982 48.6911 115.785 47.337L105.586 59.7011C101.071 65.2355 95.4007 67.9438 88.5741 67.8261C81.7476 67.7083 76.1585 64.8234 71.8069 59.1712C68.7064 55.1087 67.1698 50.4574 67.197 45.2174C67.2242 39.9774 68.8152 35.3555 71.9701 31.3519L86.4119 13.159C85.2153 12.5113 83.8282 12.0256 82.2507 11.7018C80.6733 11.3779 79.3814 11.2013 78.3751 11.1719C77.3688 11.1424 75.8321 11.1572 73.7651 11.216C71.6981 11.2749 70.3655 11.3043 69.7671 11.3043C64.7628 11.3043 60.4656 13.2473 56.8755 17.1332L43.984 31.087H31.3372V79.1304C31.6091 79.1304 32.1803 79.1157 33.0506 79.0863C33.9209 79.0568 34.5193 79.0568 34.8456 79.0863C35.172 79.1157 35.7024 79.1746 36.4367 79.2629C37.171 79.3512 37.7286 79.4837 38.1093 79.6603C38.4901 79.837 38.966 80.0872 39.5372 80.411C40.1083 80.7348 40.6115 81.1322 41.0466 81.6033L65.2795 107.391C71.535 113.927 77.7088 117.194 83.801 117.194C88.0438 117.194 91.4435 115.811 94 113.043C97.1005 114.221 100.16 113.986 103.179 112.337C106.198 110.688 108.17 108.186 109.095 104.83C113.12 105.183 116.574 103.888 119.457 100.944C120.545 99.8845 121.524 98.5451 122.394 96.9259C123.264 95.3068 123.645 93.8202 123.536 92.466C124.08 93.0548 125.25 93.3492 127.045 93.3492C129.384 93.3492 131.478 92.731 133.327 91.4946C135.177 90.2582 136.523 88.6979 137.366 86.8139C138.209 84.9298 138.536 82.825 138.345 80.4993C138.155 78.1737 137.326 76.01 135.857 74.0082ZM148.83 79.1304H156.663V33.913H149.075L136.265 18.0163C132.675 13.5417 128.078 11.3043 122.476 11.3043H108.85C104.009 11.3043 100.038 13.2767 96.9373 17.2215L79.8846 38.6821C78.3615 40.625 77.6 42.8329 77.6 45.3057C77.6 47.7785 78.3343 49.9864 79.803 51.9293C82.1419 54.9321 85.1337 56.4629 88.7781 56.5217C92.4226 56.5806 95.4415 55.1381 97.8349 52.1943L113.582 32.9416C114.942 31.5874 116.397 30.9545 117.947 31.0428C119.498 31.1311 120.776 31.926 121.782 33.4273C122.788 34.9287 123.02 36.5919 122.476 38.4171C123.346 39.5358 124.869 41.3904 127.045 43.981C129.221 46.5716 130.853 48.5734 131.94 49.9864C133.518 52.106 135.762 55.2117 138.672 59.3037C141.582 63.3956 143.336 65.8832 143.934 66.7663C146.763 70.6522 148.395 74.7736 148.83 79.1304ZM172.329 79.1304C174.504 79.1304 176.027 78.1884 176.898 76.3044C177.768 74.4203 177.768 72.5362 176.898 70.6522C176.027 68.7681 174.504 67.8261 172.329 67.8261C170.153 67.8261 168.63 68.7681 167.759 70.6522C166.889 72.5362 166.889 74.4203 167.759 76.3044C168.63 78.1884 170.153 79.1304 172.329 79.1304ZM187.994 28.2609V84.7826C187.994 86.3134 187.478 87.6381 186.444 88.7568C185.411 89.8755 184.187 90.4348 182.772 90.4348H147.361C145.893 94.2618 143.663 97.397 140.671 99.8404C137.679 102.284 134.279 103.8 130.472 104.389C128.677 107.215 126.487 109.614 123.904 111.586C121.32 113.559 118.532 114.898 115.54 115.605C113.256 118.725 110.414 121.124 107.014 122.802C103.614 124.48 100.119 125.202 96.5294 124.966C93.2657 126.968 89.8388 128.131 86.2488 128.454C82.6587 128.778 79.191 128.366 75.8457 127.218C72.5005 126.07 69.3184 124.495 66.2995 122.493C63.2805 120.491 60.4656 118.107 57.8547 115.34L34.4377 90.4348H5.22764C3.81338 90.4348 2.58949 89.8755 1.55599 88.7568C0.522488 87.6381 0.0057373 86.3134 0.0057373 84.7826V25.4348C0.0057373 23.904 0.522488 22.5793 1.55599 21.4606C2.58949 20.3419 3.81338 19.7826 5.22764 19.7826H39.578C40.3395 18.9583 41.6178 17.5453 43.4128 15.5435C45.2079 13.5417 46.4997 12.1286 47.2885 11.3043C48.0772 10.4801 49.2739 9.30254 50.8785 7.77174C52.4832 6.24094 53.8566 5.137 54.9989 4.45992C56.1412 3.78284 57.5283 3.03216 59.1601 2.20788C60.792 1.38361 62.4782 0.809556 64.2188 0.485734C65.9595 0.161911 67.8089 0 69.7671 0H79.3134C84.6985 0 89.6212 1.64855 94.0816 4.94565C98.542 1.64855 103.465 0 108.85 0H122.476C124.38 0 126.202 0.17663 127.942 0.529891C129.683 0.883152 131.22 1.31001 132.552 1.81046C133.885 2.31091 135.286 3.09103 136.754 4.15082C138.223 5.2106 139.433 6.12319 140.385 6.88859C141.337 7.65399 142.507 8.8168 143.894 10.377C145.281 11.9373 146.341 13.1737 147.076 14.0863C147.81 14.9989 148.925 16.4119 150.421 18.3254C151.917 20.2389 153.046 21.6667 153.807 22.6087H182.772C184.187 22.6087 185.411 23.168 186.444 24.2867C187.478 25.4053 187.994 26.7301 187.994 28.2609Z" fill="black"/>
</g>
<defs>
<clipPath id="clip0_32_399">
<rect width="188" height="130" fill="white"/>
</clipPath>
</defs>
</svg>
