<svg width="96" height="96" viewBox="0 0 96 96" fill="none" xmlns="http://www.w3.org/2000/svg">
<path d="M93.012 11.6399C93.5726 12.2023 93.8874 12.9639 93.8874 13.7579C93.8874 14.5519 93.5726 15.3136 93.012 15.8759L86.754 22.1399L74.754 10.1399L81.012 3.87592C81.5746 3.31351 82.3375 2.99756 83.133 2.99756C83.9285 2.99756 84.6914 3.31351 85.254 3.87592L93.012 11.6339V11.6399ZM82.512 26.3759L70.512 14.3759L29.634 55.2599C29.3038 55.5901 29.0552 55.9928 28.908 56.4359L24.078 70.9199C23.9904 71.184 23.978 71.4672 24.0421 71.7379C24.1062 72.0086 24.2443 72.2562 24.4411 72.4529C24.6378 72.6496 24.8853 72.7877 25.156 72.8518C25.4267 72.9159 25.71 72.9035 25.974 72.8159L40.458 67.9859C40.9006 67.8405 41.3032 67.594 41.634 67.2659L82.512 26.3819V26.3759Z" fill="#CD071E"/>
<path fill-rule="evenodd" clip-rule="evenodd" d="M6 81C6 83.3869 6.94821 85.6761 8.63604 87.364C10.3239 89.0518 12.6131 90 15 90H81C83.3869 90 85.6761 89.0518 87.364 87.364C89.0518 85.6761 90 83.3869 90 81V45C90 44.2043 89.6839 43.4413 89.1213 42.8787C88.5587 42.3161 87.7956 42 87 42C86.2044 42 85.4413 42.3161 84.8787 42.8787C84.3161 43.4413 84 44.2043 84 45V81C84 81.7956 83.6839 82.5587 83.1213 83.1213C82.5587 83.6839 81.7956 84 81 84H15C14.2044 84 13.4413 83.6839 12.8787 83.1213C12.3161 82.5587 12 81.7956 12 81V15C12 14.2044 12.3161 13.4413 12.8787 12.8787C13.4413 12.3161 14.2044 12 15 12H54C54.7957 12 55.5587 11.6839 56.1213 11.1213C56.6839 10.5587 57 9.79565 57 9C57 8.20435 56.6839 7.44129 56.1213 6.87868C55.5587 6.31607 54.7957 6 54 6H15C12.6131 6 10.3239 6.94821 8.63604 8.63604C6.94821 10.3239 6 12.6131 6 15V81Z" fill="#CD071E"/>
</svg>
