<svg width="128" height="128" viewBox="0 0 128 128" fill="none" xmlns="http://www.w3.org/2000/svg">
<path d="M64 64.0001C78.7276 64.0001 90.6667 52.061 90.6667 37.3334C90.6667 22.6058 78.7276 10.6667 64 10.6667C49.2724 10.6667 37.3334 22.6058 37.3334 37.3334C37.3334 52.061 49.2724 64.0001 64 64.0001Z" stroke="black" stroke-width="5.33333"/>
<path d="M90.6667 74.6667H92.544C96.4431 74.6678 100.208 76.0927 103.13 78.6736C106.053 81.2545 107.933 84.8138 108.416 88.6828L110.501 105.344C110.689 106.845 110.555 108.369 110.109 109.814C109.663 111.259 108.914 112.593 107.913 113.727C106.912 114.861 105.681 115.769 104.302 116.391C102.923 117.012 101.427 117.334 99.9147 117.333H28.0854C26.5727 117.334 25.0773 117.012 23.6984 116.391C22.3195 115.769 21.0886 114.861 20.0874 113.727C19.0862 112.593 18.3376 111.259 17.8913 109.814C17.445 108.369 17.3111 106.845 17.4987 105.344L19.5787 88.6828C20.0624 84.8119 21.9436 81.2512 24.8685 78.6701C27.7934 76.0889 31.5605 74.6652 35.4614 74.6667H37.3334" stroke="black" stroke-width="5.33333" stroke-linecap="round" stroke-linejoin="round"/>
</svg>
