<svg width="88" height="88" viewBox="0 0 88 88" fill="none" xmlns="http://www.w3.org/2000/svg">
<g clip-path="url(#clip0_175_218)">
<path d="M22 22C22 19.0826 23.1589 16.2847 25.2218 14.2218C27.2847 12.1589 30.0826 11 33 11H55C57.9174 11 60.7153 12.1589 62.7782 14.2218C64.8411 16.2847 66 19.0826 66 22V66C66 68.9174 64.8411 71.7153 62.7782 73.7782C60.7153 75.8411 57.9174 77 55 77H33C30.0826 77 27.2847 75.8411 25.2218 73.7782C23.1589 71.7153 22 68.9174 22 66V22ZM49.5 60.5C49.5 59.0413 48.9206 57.6424 47.8891 56.6109C46.8577 55.5795 45.4587 55 44 55C42.5413 55 41.1424 55.5795 40.1109 56.6109C39.0795 57.6424 38.5 59.0413 38.5 60.5C38.5 61.9587 39.0795 63.3576 40.1109 64.3891C41.1424 65.4205 42.5413 66 44 66C45.4587 66 46.8577 65.4205 47.8891 64.3891C48.9206 63.3576 49.5 61.9587 49.5 60.5ZM9.93852 26.037C10.2799 25.3923 10.3511 24.6383 10.1365 23.9411C9.922 23.2438 9.43926 22.6603 8.79452 22.319C8.14978 21.9777 7.39585 21.9064 6.69859 22.121C6.00133 22.3355 5.41785 22.8183 5.07652 23.463C1.73244 29.7913 -0.0105235 36.8425 1.70071e-05 44C1.70071e-05 51.4085 1.83702 58.399 5.07652 64.537C5.24553 64.8562 5.47576 65.1391 5.75408 65.3693C6.03239 65.5996 6.35334 65.7728 6.69859 65.879C7.04384 65.9853 7.40663 66.0224 7.76625 65.9885C8.12587 65.9545 8.47527 65.85 8.79452 65.681C9.11376 65.512 9.39659 65.2818 9.62685 65.0034C9.85712 64.7251 10.0303 64.4042 10.1365 64.0589C10.2428 63.7137 10.28 63.3509 10.246 62.9913C10.212 62.6316 10.1075 62.2822 9.93852 61.963C7.01386 56.4278 5.48994 50.2603 5.50002 44C5.50002 37.51 7.10602 31.394 9.93852 26.037ZM82.9235 23.463C82.5822 22.8183 81.9987 22.3355 81.3015 22.121C80.6042 21.9064 79.8503 21.9777 79.2055 22.319C78.5608 22.6603 78.078 23.2438 77.8635 23.9411C77.649 24.6383 77.7202 25.3923 78.0615 26.037C80.894 31.394 82.5 37.5045 82.5 44C82.5 50.49 80.894 56.606 78.0615 61.963C77.7202 62.6077 77.649 63.3617 77.8635 64.0589C78.078 64.7562 78.5608 65.3397 79.2055 65.681C79.8503 66.0223 80.6042 66.0936 81.3015 65.879C81.9987 65.6645 82.5822 65.1817 82.9235 64.537C86.2676 58.2087 88.0106 51.1575 88 44C88.0106 36.8425 86.2676 29.7913 82.9235 23.463V23.463ZM18.37 34.001C18.5235 33.6611 18.6062 33.2935 18.6132 32.9206C18.6201 32.5477 18.5512 32.1773 18.4105 31.8319C18.2698 31.4865 18.0603 31.1734 17.7948 30.9115C17.5293 30.6496 17.2133 30.4444 16.866 30.3085C16.5187 30.1726 16.1474 30.1087 15.7746 30.1208C15.4018 30.1328 15.0354 30.2206 14.6977 30.3787C14.3599 30.5369 14.0578 30.7621 13.8098 31.0406C13.5618 31.3191 13.3731 31.6452 13.255 31.999C11.7616 35.8237 10.9968 39.8941 11 44C11 48.2295 11.7975 52.2775 13.255 56.001C13.3731 56.3548 13.5618 56.6809 13.8098 56.9594C14.0578 57.2379 14.3599 57.4631 14.6977 57.6213C15.0354 57.7794 15.4018 57.8672 15.7746 57.8792C16.1474 57.8913 16.5187 57.8274 16.866 57.6915C17.2133 57.5556 17.5293 57.3504 17.7948 57.0885C18.0603 56.8266 18.2698 56.5135 18.4105 56.1681C18.5512 55.8227 18.6201 55.4523 18.6132 55.0794C18.6062 54.7065 18.5235 54.3389 18.37 53.999C17.1286 50.8118 16.4943 47.4205 16.5 44C16.5 40.469 17.16 37.0975 18.37 34.001ZM74.745 31.999C74.4549 31.3564 73.929 30.8498 73.2761 30.5838C72.6231 30.3179 71.8929 30.3129 71.2364 30.5698C70.5798 30.8268 70.047 31.3261 69.7481 31.9647C69.4492 32.6032 69.4069 33.3322 69.63 34.001C70.84 37.0975 71.5 40.469 71.5 44C71.5 47.531 70.84 50.9025 69.63 53.999C69.4069 54.6678 69.4492 55.3968 69.7481 56.0353C70.047 56.6739 70.5798 57.1732 71.2364 57.4302C71.8929 57.6871 72.6231 57.6821 73.2761 57.4162C73.929 57.1502 74.4549 56.6436 74.745 56.001C76.208 52.2775 77 48.2295 77 44C77 39.7705 76.2025 35.7225 74.745 31.999V31.999Z" fill="#CD071E"/>
</g>
<defs>
<clipPath id="clip0_175_218">
<rect width="88" height="88" fill="white"/>
</clipPath>
</defs>
</svg>
