<svg width="64" height="64" viewBox="0 0 64 64" fill="none" xmlns="http://www.w3.org/2000/svg">
<path d="M9.33334 31.9999C9.33342 28.3134 10.2327 24.6825 11.9531 21.4221C13.6736 18.1617 16.1633 15.3701 19.2065 13.2893C22.2497 11.2086 25.7544 9.90152 29.4169 9.48141C33.0794 9.0613 36.7891 9.54085 40.2244 10.8785C43.6597 12.2161 46.7169 14.3714 49.1309 17.1576C51.545 19.9438 53.243 23.2767 54.0778 26.8675C54.9127 30.4582 54.8591 34.1984 53.9217 37.7638C52.9844 41.3291 51.1915 44.612 48.6987 47.3279L51.344 50.3546C56.0534 45.405 58.6758 38.8319 58.6667 31.9999C58.6667 17.2719 46.728 5.33325 32 5.33325C17.272 5.33325 5.33334 17.2719 5.33334 31.9999C5.32422 38.8319 7.94659 45.405 12.656 50.3546L15.304 47.3306C11.4572 43.1527 9.32544 37.679 9.33334 31.9999ZM51.3333 32.3333C51.3402 36.9649 49.6485 41.4384 46.5787 44.9066L43.9173 41.8666C45.7101 39.688 46.8522 37.048 47.2123 34.2496C47.5724 31.4513 47.136 28.6082 45.9531 26.0467C44.7703 23.4852 42.889 21.3092 40.5254 19.7686C38.1617 18.2281 35.4114 17.3854 32.5904 17.3373C29.7694 17.2893 26.9921 18.0378 24.5773 19.497C22.1625 20.9561 20.2082 23.0668 18.9388 25.5865C17.6695 28.1062 17.1365 30.9329 17.4011 33.7418C17.6657 36.5508 18.7171 39.2282 20.4347 41.4666L17.7573 44.5226C15.7983 42.1806 14.4324 39.4011 13.7756 36.4193C13.1187 33.4374 13.1901 30.3412 13.9838 27.3929C14.7774 24.4445 16.27 21.7309 18.335 19.4818C20.3999 17.2327 22.9766 15.5143 25.8466 14.4723C28.7166 13.4303 31.7954 13.0954 34.8223 13.4958C37.8493 13.8962 40.7351 15.0202 43.2355 16.7726C45.7358 18.525 47.777 20.8542 49.1862 23.5629C50.5953 26.2716 51.3309 29.2799 51.3307 32.3333H51.3333ZM43.3333 31.9999C43.3371 34.4084 42.5699 36.7549 41.144 38.6959L38.408 35.5706C39.0292 34.4543 39.348 33.1952 39.3328 31.9178C39.3177 30.6405 38.9691 29.3892 38.3217 28.288C37.6742 27.1868 36.7504 26.2738 35.6416 25.6394C34.5327 25.0051 33.2774 24.6714 32 24.6714C30.7226 24.6714 29.4673 25.0051 28.3585 25.6394C27.2496 26.2738 26.3258 27.1868 25.6783 28.288C25.0309 29.3892 24.6823 30.6405 24.6672 31.9178C24.652 33.1952 24.9708 34.4543 25.592 35.5706L22.856 38.6933C21.7983 37.2487 21.0978 35.5741 20.812 33.8067C20.5262 32.0392 20.6632 30.2292 21.2118 28.525C21.7604 26.8207 22.705 25.2706 23.9681 24.0018C25.2313 22.7329 26.7771 21.7814 28.4789 21.2251C30.1807 20.6689 31.99 20.5237 33.7587 20.8016C35.5274 21.0794 37.2052 21.7723 38.6544 22.8236C40.1037 23.8748 41.2833 25.2545 42.0966 26.8495C42.9099 28.4445 43.3337 30.2095 43.3333 31.9999ZM33.504 34.0159C33.3163 33.8018 33.085 33.6302 32.8256 33.5126C32.5663 33.3951 32.2848 33.3342 32 33.3342C31.7152 33.3342 31.4337 33.3951 31.1744 33.5126C30.915 33.6302 30.6837 33.8018 30.496 34.0159L11.8293 55.3493C11.5763 55.6383 11.4118 55.9942 11.3557 56.3742C11.2995 56.7543 11.354 57.1425 11.5127 57.4924C11.6713 57.8423 11.9274 58.1391 12.2503 58.3474C12.5731 58.5556 12.9491 58.6664 13.3333 58.6666H50.6667C51.0509 58.6664 51.4269 58.5556 51.7498 58.3474C52.0726 58.1391 52.3287 57.8423 52.4873 57.4924C52.646 57.1425 52.7005 56.7543 52.6443 56.3742C52.5882 55.9942 52.4237 55.6383 52.1707 55.3493L33.504 34.0159ZM46.2587 54.6666H17.7413L32 38.3706L46.2587 54.6666Z" fill="#1B92CC"/>
</svg>
